<!-- icon666.com - MILLIONS vector ICONS FREE --><svg viewBox="-14 0 495 496" xmlns="http://www.w3.org/2000/svg"><path d="m182.578125 369.519531c11.121094 4.160157 22.722656 6.480469 33.921875 6.480469 45.199219 0 87.761719-21.679688 114.320312-58.238281l5.679688-7.761719 1.121094-1.921875c7.839844 4.320313 16.238281 7.441406 25.117187 9.203125l13.761719 2.71875-21.679688 29.761719c-26.558593 36.558593-69.121093 58.238281-114.320312 58.238281-36.480469 0-77.28125-24.320312-91.039062-57.679688l2.238281 1.679688c9.199219 7.359375 19.839843 13.441406 30.878906 17.519531zm0 0" fill="#f0bc5e"></path><path d="m377.292969 312-13.015625-2.601562c-15.59375-3.117188-29.777344-10.710938-41.015625-21.949219l-19.25-19.25c-18.191407-18.191407-42.359375-28.199219-68.070313-28.199219-6.59375 0-13.074218.761719-19.441406 1.9375v-163.699219c0-43.140625-35.105469-78.238281-78.238281-78.238281-23.898438 0-46.167969 10.703125-61.089844 29.359375l-10.070313 12.578125-58.007812 36.253906c-5.386719 3.359375-8.59375 9.160156-8.59375 15.511719 0 10.089844 8.207031 18.296875 18.296875 18.296875h51.277344l.9375.625c11.527343 7.6875 23.902343 14.167969 36.792969 19.261719 2.808593 1.113281 4.695312 4.042969 4.695312 7.28125v20.65625c0 35.976562-10.542969 70.816406-30.496094 100.742187-11.449218 17.160156-17.503906 37.144532-17.503906 57.785156 0 19.046876 5.214844 37.71875 15.097656 54.007813l4.007813 6.625c29.132812 48.054687 78.285156 80.769531 132.894531 90.160156v26.855469h16v-24.785156c5.304688.457031 10.632812.769531 16 .777344v24.007812h16v-24.703125c52.167969-4.21875 100.257812-29.199219 133.742188-70.128906l16.1875-19.777344c7.671874-5.984375 13.4375-14.269531 16.621093-23.917969 16.121094-5.242187 28.914063-18.367187 33.210938-35.527344l2.484375-9.945312zm-312.792969-216h-45.703125c-1.265625 0-2.296875-1.023438-2.296875-2.296875 0-.78125.414062-1.527344 1.078125-1.941406l46.921875-29.328125zm228.191406 183.503906 19.25 19.25c13.480469 13.484375 30.488282 22.582032 49.183594 26.324219l1.550781.3125-14.304687 19.664063c-25.015625 34.410156-65.34375 54.945312-107.871094 54.945312-32.542969 0-68.617188-21.640625-82.113281-49.265625-7-14.320313-11.191407-36.710937 8.554687-62.054687 15.941406-20.464844 41.726563-32.679688 69-32.679688 21.429688 0 41.589844 8.34375 56.75 23.503906zm122.824219 64.496094h-31.015625v16h27.953125c-6.136719 9.742188-16.914063 16-28.9375 16h-31.015625v16h31.015625c.550781 0 1.074219-.121094 1.625-.136719-33.769531 40.761719-83.402344 64.136719-136.375 64.136719-61.53125 0-119.570313-32.6875-151.480469-85.304688l-4.007812-6.625c-8.351563-13.78125-12.777344-29.589843-12.777344-45.71875 0-17.472656 5.128906-34.382812 14.816406-48.910156 21.703125-32.570312 33.183594-70.472656 33.183594-109.617187v-20.65625c0-9.742188-5.953125-18.65625-14.808594-22.160157-11.617187-4.59375-22.777344-10.421874-33.191406-17.3125v-48.886718l9.167969-11.449219c11.871093-14.847656 29.585937-23.359375 48.59375-23.359375 34.316406 0 62.238281 27.921875 62.238281 62.238281v167.832031c-18.257812 6.425782-34.441406 17.707032-46.175781 32.769532-19.367188 24.855468-23.023438 52.878906-10.304688 78.914062 16.214844 33.207032 57.695313 58.246094 96.480469 58.246094 47.632812 0 92.808594-23 120.824219-61.519531l19.246093-26.480469h63.9375c-6.136718 9.761719-16.953124 16-28.992187 16zm0 0"></path><path d="m128.5 56c0 4.417969-3.582031 8-8 8s-8-3.582031-8-8 3.582031-8 8-8 8 3.582031 8 8zm0 0"></path></svg>